<svg width="357" height="78" viewBox="0 0 357 78" fill="none" xmlns="http://www.w3.org/2000/svg">
<path d="M12.8453 31.67C13.5155 28.7972 11.73 25.925 8.85716 25.2548C5.98436 24.5846 3.1122 26.3702 2.44201 29.243C1.77181 32.1158 3.55738 34.988 6.43018 35.6582C9.30299 36.3284 12.1751 34.5428 12.8453 31.67Z" fill="#47B8B2"/>
<path d="M35.8359 64.1633L63.4747 15.6309H77.3877L43.752 77.187L35.8359 64.1633Z" fill="#47B8B2"/>
<path d="M77.7037 1.52588e-05L79.6068 27.6891L54.6758 15.4921L77.7037 1.52588e-05Z" fill="#47B8B2"/>
<path d="M35.8359 64.1633L39.2558 58.1583L47.1397 70.989L43.752 77.187L35.8359 64.1633Z" fill="#3B968F"/>
<path d="M43.7524 77.187L17.6123 33.2454L5.70508 40.0229L15.3552 57.0861L26.9829 77.187H43.7524Z" fill="#47B8B2"/>
<path d="M0 43.2697L12.4605 66.1307L17.3328 63.2278L10.2355 50.8136L11.336 50.1377L15.3553 57.0861L5.7052 40.0229L0 43.2697Z" fill="#47B8B2"/>
<path d="M23.0609 29.9945L36.7485 52.1434L31.8118 54.9376L24.5435 42.622L23.4109 43.2436L27.4565 50.1779L17.4141 33.342L23.0609 29.9945Z" fill="#47B8B2"/>
<path d="M93.9897 38.7687C93.3863 38.7687 92.8442 38.8791 92.3684 39.0974C91.8926 39.3157 91.4903 39.6321 91.1616 40.0442C90.8354 40.4562 90.5828 40.9542 90.4086 41.5404C90.2345 42.1266 90.1511 42.7839 90.1511 43.5148C90.1511 44.4935 90.2909 45.3373 90.5656 46.0437C90.8428 46.7501 91.2622 47.2921 91.8288 47.6698C92.3929 48.0476 93.1091 48.2364 93.9725 48.2364C94.5097 48.2364 95.0297 48.1849 95.5374 48.0819C96.0426 47.9789 96.5675 47.8366 97.1096 47.6576V49.4211C96.597 49.6223 96.0794 49.7694 95.5545 49.8602C95.0297 49.9534 94.4238 50 93.7395 50C92.4469 50 91.3775 49.7326 90.5288 49.1955C89.6777 48.6583 89.0449 47.9053 88.6255 46.9316C88.2085 45.9578 88 44.8173 88 43.5075C88 42.5509 88.1324 41.6753 88.3973 40.8806C88.6622 40.0859 89.0498 39.3966 89.5551 38.8178C90.0628 38.2389 90.6907 37.7925 91.4363 37.4786C92.182 37.1646 93.038 37.0076 93.9995 37.0076C94.6348 37.0076 95.2578 37.0788 95.871 37.2186C96.4866 37.3608 97.0532 37.5595 97.5781 37.8195L96.8521 39.5315C96.413 39.3255 95.9568 39.1465 95.4761 38.9944C94.9978 38.8423 94.5023 38.7687 93.9897 38.7687Z" fill="black"/>
<path d="M111.52 37.1864C112.609 37.1864 113.51 37.3188 114.221 37.5837C114.932 37.8486 115.462 38.2534 115.813 38.7954C116.161 39.3375 116.335 40.0267 116.335 40.8607C116.335 41.4837 116.22 42.0135 115.989 42.45C115.759 42.8891 115.457 43.2521 115.082 43.5391C114.707 43.8285 114.307 44.0591 113.88 44.2308L117.468 49.8231H115.126L112.075 44.7581H110.044V49.8231H107.969V37.1864H111.52ZM111.381 38.9131H110.041V43.0461H111.476C112.438 43.0461 113.137 42.867 113.571 42.5089C114.007 42.1508 114.223 41.6235 114.223 40.9269C114.223 40.196 113.99 39.676 113.527 39.3718C113.063 39.0677 112.349 38.9131 111.381 38.9131Z" fill="black"/>
<path d="M135.252 49.8231L134.016 46.3132H129.184L127.948 49.8231H125.76L130.462 37.1324H132.762L137.457 49.8231H135.252ZM133.479 44.5325L132.277 41.0741C132.23 40.9244 132.164 40.7135 132.078 40.4388C131.992 40.1641 131.904 39.8845 131.821 39.5999C131.732 39.3154 131.661 39.075 131.602 38.8788C131.546 39.1143 131.475 39.3792 131.391 39.6711C131.308 39.963 131.227 40.2352 131.151 40.4878C131.072 40.7405 131.014 40.9367 130.974 41.0741L129.763 44.5325H133.479Z" fill="black"/>
<path d="M149.32 49.8231H147.262V37.1864H154.402V38.9328H149.32V42.8744H154.073V44.6109H149.32V49.8231Z" fill="black"/>
<path d="M169.219 49.8231H167.137V38.9499H163.436V37.1864H172.911V38.9499H169.219V49.8231Z" fill="black"/>
<path d="M190.138 49.8231H182.98V37.1864H190.138V38.9328H185.056V42.3642H189.819V44.1032H185.056V48.0718H190.138V49.8231Z" fill="black"/>
<path d="M211.268 43.3845C211.268 44.8071 211.003 45.9968 210.473 46.9509C209.943 47.905 209.173 48.6212 208.165 49.1044C207.157 49.5852 205.94 49.8255 204.518 49.8255H201.008V37.1888H204.898C206.205 37.1888 207.336 37.4243 208.285 37.8928C209.237 38.3613 209.973 39.0579 210.49 39.9752C211.01 40.8925 211.268 42.0282 211.268 43.3845ZM209.107 43.4434C209.107 42.4059 208.945 41.5548 208.619 40.8852C208.295 40.218 207.817 39.7201 207.184 39.3939C206.554 39.0677 205.778 38.9058 204.854 38.9058H203.083V48.0865H204.552C206.078 48.0865 207.221 47.6965 207.976 46.919C208.729 46.1415 209.107 44.9813 209.107 43.4434Z" fill="black"/>
<path d="M227.613 37.8069C226.807 37.8069 226.085 37.9443 225.453 38.2166C224.817 38.4913 224.283 38.8788 223.844 39.3792C223.405 39.882 223.071 40.478 222.84 41.1722C222.61 41.8663 222.495 42.6316 222.495 43.468C222.495 44.6208 222.676 45.6264 223.039 46.4898C223.402 47.3507 223.949 48.0178 224.678 48.4912C225.406 48.9646 226.316 49.2001 227.405 49.2001C228.04 49.2001 228.617 49.1535 229.134 49.0578C229.654 48.9622 230.132 48.8395 230.579 48.6899V49.4674C230.159 49.6244 229.684 49.7495 229.156 49.8476C228.629 49.9457 228.018 49.9948 227.319 49.9948C226.056 49.9948 224.999 49.725 224.143 49.1829C223.289 48.6408 222.644 47.8805 222.212 46.9018C221.778 45.9232 221.562 44.7777 221.562 43.4704C221.562 42.531 221.697 41.6676 221.967 40.8803C222.239 40.0929 222.634 39.4111 223.157 38.8322C223.679 38.2533 224.312 37.8045 225.063 37.4832C225.813 37.1643 226.664 37.0024 227.623 37.0024C228.227 37.0024 228.806 37.0613 229.355 37.179C229.904 37.2968 230.422 37.4685 230.908 37.6941L230.562 38.4717C230.093 38.2411 229.617 38.0718 229.127 37.9664C228.636 37.8609 228.131 37.8069 227.613 37.8069Z" fill="black"/>
<path d="M249.285 49.8231L247.563 45.3542H242.256L240.499 49.8231H239.592L244.564 37.1423H245.375L250.217 49.8231H249.285ZM247.279 44.5496L245.532 39.8133C245.486 39.6931 245.429 39.5362 245.363 39.3473C245.297 39.156 245.228 38.9549 245.155 38.7415C245.081 38.5281 245.012 38.327 244.944 38.1381C244.885 38.3392 244.821 38.5403 244.752 38.7415C244.681 38.9426 244.618 39.1388 244.551 39.3252C244.488 39.5116 244.429 39.6809 244.37 39.8305L242.555 44.5496H247.279Z" fill="black"/>
<path d="M263.454 49.8231H262.554V37.9885H258.455V37.184H267.55V37.9885H263.451V49.8231H263.454Z" fill="black"/>
<path d="M285.49 49.8231L283.768 45.3542H278.461L276.704 49.8231H275.797L280.769 37.1423H281.581L286.422 49.8231H285.49ZM283.484 44.5496L281.737 39.8133C281.691 39.6931 281.634 39.5362 281.568 39.3473C281.502 39.156 281.433 38.9549 281.36 38.7415C281.286 38.5281 281.218 38.327 281.149 38.1381C281.09 38.3392 281.026 38.5403 280.958 38.7415C280.886 38.9426 280.823 39.1388 280.756 39.3252C280.693 39.5116 280.634 39.6809 280.575 39.8305L278.76 44.5496H283.484Z" fill="black"/>
<path d="M296.355 49.8231V37.1864H297.246V49.0112H303.262V49.8231H296.355Z" fill="black"/>
<path d="M316.472 44.0836L320.163 37.1864H321.142L316.931 44.9396V49.8231H316.043V45.0083L311.797 37.1864H312.78L316.472 44.0836Z" fill="black"/>
<path d="M338.018 46.5634C338.018 47.3188 337.83 47.9516 337.449 48.4618C337.069 48.972 336.554 49.3546 335.902 49.6122C335.249 49.8673 334.513 49.9972 333.687 49.9972C333.174 49.9972 332.708 49.9727 332.291 49.9237C331.872 49.8746 331.494 49.8108 331.158 49.7299C330.822 49.6489 330.515 49.5558 330.238 49.4527V48.5624C330.69 48.7365 331.21 48.8861 331.798 49.0161C332.389 49.1461 333.032 49.2099 333.731 49.2099C334.386 49.2099 334.972 49.1143 335.48 48.9254C335.99 48.7341 336.392 48.4471 336.687 48.0596C336.981 47.6745 337.126 47.1864 337.126 46.5977C337.126 46.0802 337.003 45.6534 336.758 45.3223C336.512 44.9911 336.147 44.7066 335.656 44.4662C335.168 44.2259 334.55 43.9831 333.807 43.7353C333.287 43.5563 332.819 43.3674 332.394 43.1687C331.972 42.97 331.609 42.7395 331.31 42.477C331.011 42.2146 330.78 41.8982 330.623 41.5254C330.466 41.1525 330.385 40.7135 330.385 40.2082C330.385 39.5116 330.562 38.923 330.918 38.4496C331.273 37.9737 331.754 37.6132 332.362 37.3679C332.971 37.1226 333.655 37 334.415 37C335.021 37 335.595 37.0564 336.14 37.1692C336.684 37.2821 337.209 37.4513 337.717 37.6745L337.405 38.4447C336.898 38.2264 336.39 38.0645 335.885 37.9615C335.377 37.8585 334.876 37.8045 334.379 37.8045C333.785 37.8045 333.258 37.8928 332.792 38.0694C332.328 38.246 331.96 38.5084 331.69 38.8616C331.42 39.2124 331.286 39.6564 331.286 40.1935C331.286 40.7478 331.411 41.1942 331.661 41.5327C331.914 41.8737 332.269 42.1557 332.733 42.3814C333.196 42.6046 333.746 42.8253 334.379 43.0387C335.127 43.2914 335.774 43.5587 336.316 43.8383C336.858 44.118 337.278 44.4712 337.575 44.8979C337.871 45.3223 338.018 45.879 338.018 46.5634Z" fill="black"/>
<path d="M352.161 49.8231H351.261V37.9885H347.162V37.184H356.259V37.9885H352.161V49.8231Z" fill="black"/>
</svg>
